<svg width="500" height="263" viewBox="0 0 108 57" fill="none" xmlns="http://www.w3.org/2000/svg"><path d="M6.36198 51.0568C14.5655 43.6547 22.8327 38.3827 33.0334 34.1214C41.9815 30.3833 50.9574 27.5147 60.4869 25.6975C64.7398 24.8866 70.4456 23.1757 74.6916 25.052C78.7455 26.8434 76.8429 31.2382 74.452 33.8159C73.064 35.3123 68.2991 39.8353 65.7243 38.891C61.9692 37.5137 66.7058 30.6807 67.8874 29.4231C76.1348 20.6456 87.9628 14.9732 97.616 7.90315" stroke="#72745A" stroke-width="3" stroke-linecap="round" /><path d="M86.703 8.54596C87.8085 8.48328 88.8702 8.09232 89.9411 7.81231C91.9922 7.27601 94.0613 6.79902 96.1244 6.31867C97.5892 5.97765 99.1597 5.78112 100.591 5.2831C100.647 5.2639 100.663 5.22485 100.613 5.31318C100.373 5.73848 100.172 6.18819 99.9529 6.62532C98.8707 8.78512 97.8591 10.9639 96.9831 13.2229C96.5494 14.3411 96.0241 15.4334 95.6039 16.5488" stroke="#72745A" stroke-width="3" stroke-linecap="round" /></svg>